<svg xmlns="http://www.w3.org/2000/svg" width="24" height="24" viewBox="0 0 24 24">
  <g>
    <path fill="rgb(189,189,189)" fill-rule="evenodd" d="M48.625-32.625h-16.25c-.6875 0-1.25.5625-1.25 1.25v3.125h18.75v-3.125c0-.6875-.5625-1.25-1.25-1.25z"/>
    <path fill="rgb(77,77,77)" fill-rule="evenodd" d="M48.625-33.25H46.75v-1.875c0-1.03749847-.83750153-1.875-1.875-1.875h-8.75c-1.03749847 0-1.875.83750153-1.875 1.875v1.875h-1.875c-1.03750038 0-1.875.83750153-1.875 1.875v12.5c0 1.03750038.83749962 1.875 1.875 1.875h16.25c1.03749847 0 1.875-.83749962 1.875-1.875v-12.5c0-1.03749847-.83750153-1.875-1.875-1.875zM35.5-35.125c0-.34375.28125-.625.625-.625h8.75c.34375 0 .625.28125.625.625v1.875h-10v-1.875zM48.625-18.25c.34375 0 .625-.28125.625-.625v-12.5c0-.34375-.28125-.625-.625-.625h-16.25c-.34375 0-.625.28125-.625.625v12.5c0 .34375.28125.625.625.625h16.25z"/>
    <path fill="rgb(189,189,189)" fill-rule="evenodd" d="M44.25-24.5h-2.5V-27h-2.5v2.5h-2.5v2.5h2.5v2.5h2.5V-22h2.5v-2.5z"/>
  </g>
  <g>
    <path fill="rgb(77,77,77)" fill-rule="evenodd" d="M6.3985324 3.0629816c1.48617076.00666428 3.10563039-.61312866 4.55181455-1.43285524l.32655811.57980644-.31989384-.57980644c.32655812-.18660438.68643761-.27990663 1.04631806-.27990663.3598795 0 .72642421.09996664 1.0463171.27990663 1.44618416.81972658 3.06564522 1.43951952 4.55181503 1.43285525.58647156 0 1.15294838-.09330225 1.69943237-.29990006.23325539-.09330225.47983933-.13328886.71309662-.13328886 1.0596447 0 1.98600388.8530488 1.98600388 1.99266863v5.0183258c0 6.03798485-4.00533104 11.34954644-9.81672573 13.00899315h-.36654377C6.00533008 20.99033356 2 15.67877197 2 9.64078712v-5.0183258c0-1.13961983.9263575-1.99266863 1.98600388-1.99266863.23325538 0 .47984027.04665136.71309566.13328886.546484.2065978 1.11296177.29990006 1.69943285.29990006zm5.97800492-.27324223c-.1266241-.0733087-.25991249-.10663104-.38653755-.10663104-.1266241 0-.25991249.03332233-.38653755.10663104-1.55947971.87970662-3.35887909 1.59946656-5.20492983 1.60613084-.72642422 0-1.45951319-.11329556-2.17260837-.38653755l-.23992014-.04665137c-.33988643 0-.65311528.27990675-.65311528.65978003v5.0183258c0 5.37977791 3.51979924 10.12195397 8.65661145 11.67448616 5.13095474-1.55856323 8.65760994-6.29444122 8.65760994-11.67448616v-5.0183258c0-.37987328-.30656434-.65978003-.65311432-.65978003l-.23991776.04665137c-.70643234.26657772-1.44618606.38653755-2.17261124.38653755-1.83938503-.00666428-3.64544963-.72642422-5.20492935-1.60613084z"/>
    <path fill="rgb(0,133,207)" fill-rule="evenodd" d="M4.6657772 5.55548334c2.34588385.64645052 4.99166775-.2265911 7.33088685-1.45951319 2.33922004 1.23292208 4.9916687 2.09929943 7.33088875 1.4595132v4.08530377c0 4.63845158-2.985672 8.78373528-7.33088875 10.27657128C7.65144777 18.41785812 4.6657772 14.27257442 4.6657772 9.64078712V5.55548334zm7.99733163 6.45784521h2.6657772v-1.3328886h-2.6657772v-2.6657772h-1.3328886v2.6657772H8.66444301v1.3328886h2.6657772v2.6657772h1.3328886v-2.6657772z"/>
  </g>
</svg>
