<svg xmlns="http://www.w3.org/2000/svg" width="24" height="24" viewBox="0 0 24 24">
  <g>
    <path fill="rgb(189,189,189)" fill-rule="evenodd" d="M48.625-32.625h-16.25c-.6875 0-1.25.5625-1.25 1.25v3.125h18.75v-3.125c0-.6875-.5625-1.25-1.25-1.25z"/>
    <path fill="rgb(77,77,77)" fill-rule="evenodd" d="M48.625-33.25H46.75v-1.875c0-1.03749847-.83750153-1.875-1.875-1.875h-8.75c-1.03749847 0-1.875.83750153-1.875 1.875v1.875h-1.875c-1.03750038 0-1.875.83750153-1.875 1.875v12.5c0 1.03750038.83749962 1.875 1.875 1.875h16.25c1.03749847 0 1.875-.83749962 1.875-1.875v-12.5c0-1.03749847-.83750153-1.875-1.875-1.875zM35.5-35.125c0-.34375.28125-.625.625-.625h8.75c.34375 0 .625.28125.625.625v1.875h-10v-1.875zM48.625-18.25c.34375 0 .625-.28125.625-.625v-12.5c0-.34375-.28125-.625-.625-.625h-16.25c-.34375 0-.625.28125-.625.625v12.5c0 .34375.28125.625.625.625h16.25z"/>
    <path fill="rgb(189,189,189)" fill-rule="evenodd" d="M44.25-24.5h-2.5V-27h-2.5v2.5h-2.5v2.5h2.5v2.5h2.5V-22h2.5v-2.5z"/>
  </g>
  <g>
    <path fill="rgb(0,133,207)" fill-rule="evenodd" d="M17.24318182 5.1818181c.12272727-.20454546.21136363-.42954546.21136363-.68181819V3.13636355c0-.75-.61363636-1.36363636-1.36363636-1.36363636H7.90909091c-.75 0-1.36363636.61363636-1.36363636 1.36363636v1.36363636c0 .25227273.08863636.47727273.21136363.68181819h10.48636364z"/>
    <path fill="rgb(0,133,207)" fill-rule="evenodd" d="M18.818182 18.818182H5.181818V9.272727h13.636364V18.818182zm-7.5-5.45454503H8.590909V14.727273h2.727273v2.72727298h1.363636V14.727273h2.727273v-1.36363602h-2.727273v-2.72727299h-1.363636v2.727273z"/>
    <path fill="rgb(77,77,77)" fill-rule="evenodd" d="M18.13636398 4.5c0 .6545453-.31363678 1.22727251-.79090881 1.60227251C18.66818237 7.4454546 19.5 9.27954578 19.5 11.318182v9.54545498c0 1.13181686-.91363525 2.04545593-2.04545593 2.04545593H6.5454545C5.4136362 22.9090929 4.5 21.99545383 4.5 20.86363697V11.318182c0-2.0386362.8318181-3.8727274 2.15454578-5.21590948-.47727298-.375-.79090929-.9477272-.79090929-1.60227251V3.1363635c0-1.13181805.91363621-2.0454545 2.0454545-2.0454545h8.18181706c1.13181877 0 2.04545593.91363645 2.04545593 2.0454545V4.5zm-.681818 17.04545307c.375 0 .681818-.3068161.681818-.6818161V11.318182c0-2.01818275-.98181915-3.784091-2.48863601-4.909091-.23181916-.1772728-.33409119-.4840908-.23863602-.76363658.09545326-.27954531.35454369-.47045422.64772606-.47045422h.03409195c.375 0 .681818-.30681848.681818-.68181848V3.12954545c0-.375-.306818-.68181825-.681818-.68181825H7.909091c-.375 0-.68181801.30681825-.68181801.68181825v1.36363626c0 .375.306818.68181848.681818.68181848h.034091c.29318142 0 .5522728.19090891.64772701.47045422.09545422.27954578 0 .58636379-.23863601.76363659-1.5068183 1.125-2.4886365 2.897727-2.4886365 4.909091v9.54545497c0 .375.30681801.6818161.68181801.6818161h10.90909147z"/>
  </g>
</svg>
