<svg xmlns="http://www.w3.org/2000/svg" width="24" height="24" viewBox="0 0 24 24">
  <g>
    <path fill="rgb(189,189,189)" fill-rule="evenodd" d="M48.625-32.625h-16.25c-.6875 0-1.25.5625-1.25 1.25v3.125h18.75v-3.125c0-.6875-.5625-1.25-1.25-1.25z"/>
    <path fill="rgb(77,77,77)" fill-rule="evenodd" d="M48.625-33.25H46.75v-1.875c0-1.03749847-.83750153-1.875-1.875-1.875h-8.75c-1.03749847 0-1.875.83750153-1.875 1.875v1.875h-1.875c-1.03750038 0-1.875.83750153-1.875 1.875v12.5c0 1.03750038.83749962 1.875 1.875 1.875h16.25c1.03749847 0 1.875-.83749962 1.875-1.875v-12.5c0-1.03749847-.83750153-1.875-1.875-1.875zM35.5-35.125c0-.34375.28125-.625.625-.625h8.75c.34375 0 .625.28125.625.625v1.875h-10v-1.875zM48.625-18.25c.34375 0 .625-.28125.625-.625v-12.5c0-.34375-.28125-.625-.625-.625h-16.25c-.34375 0-.625.28125-.625.625v12.5c0 .34375.28125.625.625.625h16.25z"/>
    <path fill="rgb(189,189,189)" fill-rule="evenodd" d="M44.25-24.5h-2.5V-27h-2.5v2.5h-2.5v2.5h2.5v2.5h2.5V-22h2.5v-2.5z"/>
  </g>
  <g>
    <path fill="rgb(0,133,207)" fill-rule="evenodd" d="M19.67974645 4.32025493c-2.2435211-2.2435211-5.89323778-2.2435211-8.13675888 0L7.92522989 7.93801262l8.13675888 8.13675888 3.61775768-3.61775768c2.24352111-2.2435211 2.24352111-5.89323778 0-8.13675889z"/>
    <path fill="rgb(77,77,77)" fill-rule="evenodd" d="M15.61456299 2.00003219c1.63630104-.00639177 3.27260017.62000441 4.519001 1.866405 1.24640084 1.2464006 1.8664055 2.8890927 1.8664055 4.51900173.00639152 1.63629913-.62000466 3.27260017-1.8664055 4.519001l-7.22912406 7.22912312c-1.24640084 1.24000931-2.88269997 1.86640549-4.51900101 1.86640549-1.63629961.00639343-3.27260017-.62000275-4.51900077-1.86640549-1.24000883-1.24639892-1.86640501-2.88270092-1.86640501-4.51900196-.00639176-1.63629913.62000442-3.27260017 1.86640501-4.519001l7.22912383-7.22912288c1.24640083-1.24000883 2.88269997-1.86640501 4.519001-1.86640501zm-3.6177578 17.23228573l7.22912407-7.22912216c.9971199-.9971199 1.49568176-2.30104732 1.50207329-3.61136532 0-1.31671047-.49855995-2.62063741-1.49568176-3.6177578-.9971199-.99712061-2.3074398-1.4956808-3.6177578-1.4956808-1.31671047 0-2.6206379.49856019-3.6177578 1.4956808l-7.2355156 7.2227316c-.99712037.99712085-1.49568056 2.30743885-1.49568056 3.6177578 0 1.31671047.49856019 2.62063598 1.49568057 3.61775588.99712085.9971199 2.30743932 1.49568177 3.6177578 1.49568177 1.31671047 0 2.62063693-.49856186 3.6177578-1.49568177z"/>
    <path fill="rgb(0,133,207)" fill-rule="evenodd" d="M6.5701687 17.42983268c-.49856024-.49856024-.74784036-1.15052364-.74784036-1.80887884 0-.6583552.24928012-1.3103186.74784036-1.80887884.24928013-.24928012.24928013-.6519634 0-.90124352-.24928012-.24928012-.6519634-.24928012-.90124352 0-.74784037.74784037-1.12495645 1.73217726-1.12495645 2.71012236 0 .9779451.37711608 1.962282 1.12495645 2.71012236.24928013.24928013.6519634.24928013.90124352 0 .25567193-.24928012.25567193-.6519634 0-.90124352z"/>
  </g>
</svg>
