<svg xmlns="http://www.w3.org/2000/svg" width="24" height="24" viewBox="0 0 24 24">
  <g>
    <path fill="rgb(189,189,189)" fill-rule="evenodd" d="M48.625-32.625h-16.25c-.6875 0-1.25.5625-1.25 1.25v3.125h18.75v-3.125c0-.6875-.5625-1.25-1.25-1.25z"/>
    <path fill="rgb(77,77,77)" fill-rule="evenodd" d="M48.625-33.25H46.75v-1.875c0-1.03749847-.83750153-1.875-1.875-1.875h-8.75c-1.03749847 0-1.875.83750153-1.875 1.875v1.875h-1.875c-1.03750038 0-1.875.83750153-1.875 1.875v12.5c0 1.03750038.83749962 1.875 1.875 1.875h16.25c1.03749847 0 1.875-.83749962 1.875-1.875v-12.5c0-1.03749847-.83750153-1.875-1.875-1.875zM35.5-35.125c0-.34375.28125-.625.625-.625h8.75c.34375 0 .625.28125.625.625v1.875h-10v-1.875zM48.625-18.25c.34375 0 .625-.28125.625-.625v-12.5c0-.34375-.28125-.625-.625-.625h-16.25c-.34375 0-.625.28125-.625.625v12.5c0 .34375.28125.625.625.625h16.25z"/>
    <path fill="rgb(189,189,189)" fill-rule="evenodd" d="M44.25-24.5h-2.5V-27h-2.5v2.5h-2.5v2.5h2.5v2.5h2.5V-22h2.5v-2.5z"/>
  </g>
  <g>
    <path fill="rgb(77,77,77)" fill-rule="evenodd" d="M20.53125 2.15625c1.08937454 0 1.96875.87937498 1.96875 1.96875v15.75c0 1.08937454-.87937546 1.96875-1.96875 1.96875H3.46875C2.37937498 21.84375 1.5 20.96437454 1.5 19.875V4.125c0-1.08937502.87937498-1.96875 1.96875-1.96875h17.0625zm0 18.375c.36093712 0 .65625-.29531288.65625-.65625V4.125c0-.3609376-.29531288-.65625-.65625-.65625H3.46875c-.3609376 0-.65625.2953124-.65625.65625v15.75c0 .36093712.2953124.65625.65625.65625h17.0625z"/>
    <ellipse cx="6.094" cy="18.563" fill="rgb(0,133,207)" rx=".656" ry=".656"/>
    <ellipse cx="8.719" cy="18.563" fill="rgb(0,133,207)" rx=".656" ry=".656"/>
    <path fill="rgb(0,133,207)" fill-rule="evenodd" d="M5.4375 4.78125h13.125c.72187424 0 1.3125.5906248 1.3125 1.3125v9.1875c0 .72187424-.59062576 1.3125-1.3125 1.3125H5.4375c-.7218752 0-1.3125-.59062576-1.3125-1.3125v-9.1875c0-.7218752.5906248-1.3125 1.3125-1.3125zm9.65999985 6.5625H16.59375c.36093712 0 .65625-.29531288.65625-.65625s-.29531288-.65625-.65625-.65625H14.625c-.28218746 0-.5315628.17718697-.62343788.44624996L13.3125 12.54468727l-2.00156212-6.0046873c-.17718792-.53812505-1.06968784-.53812505-1.24687576 0L8.90250015 10.03125H7.40625c-.3609376 0-.65625.29531288-.65625.65625s.2953124.65625.65625.65625H9.375c.28218746 0 .5315628-.17718697.62343788-.44624996L10.6875 8.83031273l2.00156212 6.0046873c.09187507.26249982.34125042.44624997.62343788.44624997s.5315628-.17718792.62343788-.44624996L15.09749985 11.34375z"/>
  </g>
</svg>
