<svg xmlns="http://www.w3.org/2000/svg" width="24" height="24" viewBox="0 0 24 24">
  <g>
    <path fill="rgb(0,133,207)" fill-rule="evenodd" d="M20.125 6.375H3.875c-.6875 0-1.25.5625-1.25 1.25v3.125h18.75V7.625c0-.6875-.5625-1.25-1.25-1.25z"/>
    <path fill="rgb(77,77,77)" fill-rule="evenodd" d="M20.125 5.75H18.25V3.875C18.25 2.8375001 17.41250038 2 16.375 2h-8.75C6.5875001 2 5.75 2.8375001 5.75 3.875V5.75H3.875C2.8375001 5.75 2 6.5875001 2 7.625v12.5C2 21.16250038 2.8375001 22 3.875 22h16.25C21.16250038 22 22 21.16250038 22 20.125v-12.5c0-1.0374999-.83749962-1.875-1.875-1.875zM7 3.875c0-.34375.28125-.625.625-.625h8.75c.34375 0 .625.28125.625.625V5.75H7V3.875zM20.125 20.75c.34375 0 .625-.28125.625-.625v-12.5c0-.34375-.28125-.625-.625-.625H3.875c-.34375 0-.625.28125-.625.625v12.5c0 .34375.28125.625.625.625h16.25z"/>
    <path fill="rgb(0,133,207)" fill-rule="evenodd" d="M15.75 14.5h-2.5V12h-2.5v2.5h-2.5V17h2.5v2.5h2.5V17h2.5v-2.5z"/>
  </g>
</svg>
