<svg xmlns="http://www.w3.org/2000/svg" width="24" height="24" viewBox="0 0 24 24">
  <g>
    <path fill="rgb(189,189,189)" fill-rule="evenodd" d="M48.625-32.625h-16.25c-.6875 0-1.25.5625-1.25 1.25v3.125h18.75v-3.125c0-.6875-.5625-1.25-1.25-1.25z"/>
    <path fill="rgb(77,77,77)" fill-rule="evenodd" d="M48.625-33.25H46.75v-1.875c0-1.03749847-.83750153-1.875-1.875-1.875h-8.75c-1.03749847 0-1.875.83750153-1.875 1.875v1.875h-1.875c-1.03750038 0-1.875.83750153-1.875 1.875v12.5c0 1.03750038.83749962 1.875 1.875 1.875h16.25c1.03749847 0 1.875-.83749962 1.875-1.875v-12.5c0-1.03749847-.83750153-1.875-1.875-1.875zM35.5-35.125c0-.34375.28125-.625.625-.625h8.75c.34375 0 .625.28125.625.625v1.875h-10v-1.875zM48.625-18.25c.34375 0 .625-.28125.625-.625v-12.5c0-.34375-.28125-.625-.625-.625h-16.25c-.34375 0-.625.28125-.625.625v12.5c0 .34375.28125.625.625.625h16.25z"/>
    <path fill="rgb(189,189,189)" fill-rule="evenodd" d="M44.25-24.5h-2.5V-27h-2.5v2.5h-2.5v2.5h2.5v2.5h2.5V-22h2.5v-2.5z"/>
  </g>
  <g>
    <path fill="rgb(77,77,77)" fill-rule="evenodd" d="M18.66666667 7.33333365c-1.84 0-3.33333334 1.49333333-3.33333334 3.33333333 0 1.84 1.49333334 3.33333334 3.33333334 3.33333334 1.84 0 3.33333333-1.49333334 3.33333333-3.33333334 0-1.84-1.49333333-3.33333333-3.33333333-3.33333333z"/>
    <path fill="rgb(0,133,207)" fill-rule="evenodd" d="M18.66666667 12.66666698c-1.10666667 0-2-.89333333-2-2 0-1.10666666.89333333-2 2-2 1.10666666 0 2 .89333334 2 2 0 1.10666667-.89333334 2-2 2z"/>
    <path fill="rgb(77,77,77)" fill-rule="evenodd" d="M18.66666603 12.66666698c-.3666668 0-.66666603.3000002-.66666603.66666699v3.99999714c-.0066681 2.58000183-2.08666706 4.65999985-4.66666698 4.66666794-2.57999993-.0066681-4.65999985-2.08666611-4.66666699-4.66666794v-3.37333107C11.66666698 13.62666702 14 11.08666706 14 8V4c0-.90666628-.60666656-1.65999985-1.42666626-1.90666628-.2466669-.82666671-1-1.42666674-1.90666676-1.42666674-1.10666751 0-2.00000095.89333332-2.00000095 2 0 1.10666657.89333344 2 2.00000095 2 .79333306 0 1.47999955-.4666667 1.79999924-1.1400001.12000084.12000012.20000076.28666687.20000076.47333312v4C12.65999985 10.57999992 10.57999992 12.65999985 8 12.66666698 5.42000008 12.65999985 3.34000015 10.57999992 3.3333335 8V4c0-.18666625.07999992-.353333.1999998-.47333312.32000017.6733334 1 1.1400001 1.79999972 1.1400001 1.10666704 0 2.00000047-.89333343 2.00000047-2 0-1.10666668-.89333343-2-2.00000047-2-.90666628 0-1.65999985.60666669-1.90666628 1.42666674C2.60666656 2.34000015 2 3.09333372 2 4v4c0 3.08666706 2.33333302 5.62666702 5.3333335 5.96000004v3.37333107c0 3.31333542 2.68666696 6 5.99999952 6 3.31333446 0 6.00000095-2.68666458 6.00000095-6v-3.99999714c0-.3666668-.30000115-.66666699-.66666794-.66666699zM6 2.66666698c0-.36666679-.3000002-.66666674-.66666698-.66666674-.36666632 0-.66666651.29999995-.66666651.66666674 0 .36666656.30000019.66666651.6666665.66666651C5.69999982 3.3333335 6 3.03333354 6 2.666667zm4.66666698.66666651C10.3000002 3.3333335 10 3.03333354 10 2.666667c0-.3666668.3000002-.66666675.66666698-.66666675.36666584 0 .66666604.29999995.66666604.66666674 0 .36666656-.3000002.66666651-.66666604.66666651z"/>
    <ellipse cx="18.667" cy="10.667" fill="rgb(0,133,207)" rx=".667" ry=".667"/>
  </g>
</svg>
