<svg xmlns="http://www.w3.org/2000/svg" width="24" height="24" viewBox="0 0 24 24">
  <g>
    <path fill="rgb(189,189,189)" fill-rule="evenodd" d="M48.625-32.625h-16.25c-.6875 0-1.25.5625-1.25 1.25v3.125h18.75v-3.125c0-.6875-.5625-1.25-1.25-1.25z"/>
    <path fill="rgb(77,77,77)" fill-rule="evenodd" d="M48.625-33.25H46.75v-1.875c0-1.03749847-.83750153-1.875-1.875-1.875h-8.75c-1.03749847 0-1.875.83750153-1.875 1.875v1.875h-1.875c-1.03750038 0-1.875.83750153-1.875 1.875v12.5c0 1.03750038.83749962 1.875 1.875 1.875h16.25c1.03749847 0 1.875-.83749962 1.875-1.875v-12.5c0-1.03749847-.83750153-1.875-1.875-1.875zM35.5-35.125c0-.34375.28125-.625.625-.625h8.75c.34375 0 .625.28125.625.625v1.875h-10v-1.875zM48.625-18.25c.34375 0 .625-.28125.625-.625v-12.5c0-.34375-.28125-.625-.625-.625h-16.25c-.34375 0-.625.28125-.625.625v12.5c0 .34375.28125.625.625.625h16.25z"/>
    <path fill="rgb(189,189,189)" fill-rule="evenodd" d="M44.25-24.5h-2.5V-27h-2.5v2.5h-2.5v2.5h2.5v2.5h2.5V-22h2.5v-2.5z"/>
  </g>
  <g>
    <path fill="rgb(0,133,207)" fill-rule="evenodd" d="M13.05187511 5.90187502c-4.22812557-.70125008-7.85125017 2.92187452-7.1500001 7.1500001.42624999 2.56437444 2.48874999 4.62687444 5.05312491 5.0531249 4.22812462.70125008 7.8512497-2.921875 7.14999962-7.1500001-.42625046-2.56437492-2.49562454-4.63374996-5.05312443-5.0531249zM12.6875 9.25c0 .3781252.3093748.6875.6875.6875s.6875-.3093748.6875-.6875-.3093748-.6875-.6875-.6875-.6875.3093748-.6875.6875zm-1.375 6.18750048c-.75625038 0-1.375-.61874962-1.375-1.375 0-.75625086.61874962-1.37500048 1.375-1.37500048s1.375.61874962 1.375 1.37500048c0 .75625038-.61874962 1.375-1.375 1.375z"/>
    <path fill="rgb(77,77,77)" fill-rule="evenodd" d="M18.77874947 6.1906252c1.203125 1.40249967 1.97312545 3.1762495 2.1243763 5.1218748H23v1.375h-2.09687424c-.15125084 1.95250034-.9212513 3.71937561-2.1243763 5.12187576l.99687577.99687386.48812485.48812485-.96937561.9693756-.48812485-.48812484-.99687386-.99687576c-1.40250015 1.203125-3.17625045 1.97312545-5.12187576 2.1243763V23h-1.375v-2.09687424c-1.95250034-.15125084-3.71937513-.9212513-5.1218748-2.1243763l-.9968753.99687577-.48812484.48812485-.96937514-.96937561.48812485-.48812485.99687529-.99687386c-1.203125-1.40250015-1.97312498-3.17625045-2.1243751-5.12187576H1v-1.375h2.09687495c.15125013-1.95250034.9212501-3.71937513 2.1243751-5.1218748L3.73624993 4.70562505l.96937514-.96937514 1.48500013 1.48500014c1.40249968-1.203125 3.1762495-1.97312498 5.12187481-2.1243751V1h1.375v2.09687495c1.95250034.15125013 3.71937561.9212501 5.12187576 2.1243751l.99687386-.99687528.48812485-.48812485.9693756.96937514-1.4850006 1.48500013zM12 19.5625c2.08312511 0 3.96687508-.85250092 5.34187508-2.22062492C18.71687508 15.9737501 19.5625 14.0831251 19.5625 12s-.85250092-3.96687508-2.22062492-5.34187508C15.9737501 5.28312492 14.0831251 4.4375 12 4.4375c-2.08312511.00687504-3.96687508.85249996-5.34187508 2.22062492C5.28312492 8.0262499 4.4375 9.9168749 4.4375 12s.85249996 3.96687508 2.22062492 5.34187508C8.0262499 18.71687508 9.9168749 19.5625 12 19.5625z"/>
  </g>
</svg>
