<svg xmlns="http://www.w3.org/2000/svg" width="24" height="24" viewBox="0 0 24 24">
  <g>
    <path fill="rgb(189,189,189)" fill-rule="evenodd" d="M48.625-32.625h-16.25c-.6875 0-1.25.5625-1.25 1.25v3.125h18.75v-3.125c0-.6875-.5625-1.25-1.25-1.25z"/>
    <path fill="rgb(77,77,77)" fill-rule="evenodd" d="M48.625-33.25H46.75v-1.875c0-1.03749847-.83750153-1.875-1.875-1.875h-8.75c-1.03749847 0-1.875.83750153-1.875 1.875v1.875h-1.875c-1.03750038 0-1.875.83750153-1.875 1.875v12.5c0 1.03750038.83749962 1.875 1.875 1.875h16.25c1.03749847 0 1.875-.83749962 1.875-1.875v-12.5c0-1.03749847-.83750153-1.875-1.875-1.875zM35.5-35.125c0-.34375.28125-.625.625-.625h8.75c.34375 0 .625.28125.625.625v1.875h-10v-1.875zM48.625-18.25c.34375 0 .625-.28125.625-.625v-12.5c0-.34375-.28125-.625-.625-.625h-16.25c-.34375 0-.625.28125-.625.625v12.5c0 .34375.28125.625.625.625h16.25z"/>
    <path fill="rgb(189,189,189)" fill-rule="evenodd" d="M44.25-24.5h-2.5V-27h-2.5v2.5h-2.5v2.5h2.5v2.5h2.5V-22h2.5v-2.5z"/>
  </g>
  <g>
    <path fill="rgb(189,189,189)" fill-rule="evenodd" d="M17.24318182 5.1818181c.12272727-.20454546.21136363-.42954546.21136363-.68181819V3.13636355c0-.75-.61363636-1.36363636-1.36363636-1.36363636H7.90909091c-.75 0-1.36363636.61363636-1.36363636 1.36363636v1.36363636c0 .25227273.08863636.47727273.21136363.68181819h10.48636364z"/>
    <path fill="rgb(189,189,189)" fill-rule="evenodd" d="M18.81819153 18.81818104H5.18182373V9.272727h13.6363678v9.54545403zm-7.5-5.45454407H8.59091187V14.727273h2.72727966v2.72727203h1.3636322V14.727273h2.7272644v-1.36363602h-2.7272644v-2.72727299h-1.3636322v2.727273z"/>
    <path fill="rgb(77,77,77)" fill-rule="evenodd" d="M18.1363678 4.5c0 .6545453-.31364441 1.22727251-.79090882 1.60227251C18.66818238 7.4454546 19.5 9.27954578 19.5 11.318182v9.54545498c0 1.13181686-.91363525 2.04545403-2.04545593 2.04545403H6.54545593C5.41363525 22.909091 4.5 21.99545383 4.5 20.86363697V11.318182c0-2.0386362.83181763-3.8727274 2.15454102-5.21590948-.4772644-.375-.79090882-.9477272-.79090882-1.60227251V3.1363635c0-1.13181805.91363526-2.0454545 2.04545593-2.0454545h8.18182374c1.13182067 0 2.04545593.91363645 2.04545593 2.0454545V4.5zm-.68182373 17.04545307c.375 0 .68180847-.3068161.68180847-.6818161V11.318182c0-2.0181818-.98181152-3.784091-2.4886322-4.909091-.23181153-.1772728-.33409119-.4840908-.2386322-.76363658.09545898-.27954531.35453796-.47045422.64772033-.47045422h.0341034c.375 0 .68180847-.30681848.68180847-.68181848V3.12954545c0-.375-.30680847-.68181825-.68180847-.68181825H7.90908813c-.375 0-.68182373.30681825-.68182373.68181825v1.36363626c0 .375.30682373.68181848.68182373.68181848h.03408814c.29318237 0 .55227661.19090891.6477356.47045422.09544372.27954578 0 .58636379-.23864747.76363659-1.50682067 1.125-2.4886322 2.897727-2.4886322 4.909091v9.54545497c0 .375.30682373.6818161.68182373.6818161h10.90908814z"/>
  </g>
</svg>
