<svg xmlns="http://www.w3.org/2000/svg" width="16" height="16" viewBox="0 0 16 16">
  <g>
    <path fill="rgb(189,189,189)" fill-rule="evenodd" d="M48.625-32.625h-16.25c-.6875 0-1.25.5625-1.25 1.25v3.125h18.75v-3.125c0-.6875-.5625-1.25-1.25-1.25z"/>
    <path fill="rgb(77,77,77)" fill-rule="evenodd" d="M48.625-33.25H46.75v-1.875c0-1.03749847-.83750153-1.875-1.875-1.875h-8.75c-1.03749847 0-1.875.83750153-1.875 1.875v1.875h-1.875c-1.03750038 0-1.875.83750153-1.875 1.875v12.5c0 1.03750038.83749962 1.875 1.875 1.875h16.25c1.03749847 0 1.875-.83749962 1.875-1.875v-12.5c0-1.03749847-.83750153-1.875-1.875-1.875zM35.5-35.125c0-.34375.28125-.625.625-.625h8.75c.34375 0 .625.28125.625.625v1.875h-10v-1.875zM48.625-18.25c.34375 0 .625-.28125.625-.625v-12.5c0-.34375-.28125-.625-.625-.625h-16.25c-.34375 0-.625.28125-.625.625v12.5c0 .34375.28125.625.625.625h16.25z"/>
    <path fill="rgb(189,189,189)" fill-rule="evenodd" d="M44.25-24.5h-2.5V-27h-2.5v2.5h-2.5v2.5h2.5v2.5h2.5V-22h2.5v-2.5z"/>
  </g>
  <g>
    <path fill="rgb(0,0,0)" fill-rule="evenodd" d="M1 4.0625C1 3.33761597 1.58762741 2.75 2.3125 2.75h11.375C14.4123764 2.75 15 3.33761597 15 4.0625v7.875c0 .72488403-.5876236 1.3125-1.3125 1.3125H2.3125C1.58762741 13.25 1 12.66238403 1 11.9375v-7.875zm1.3125-.4375h11.375c.24162292 0 .4375.19586182.4375.4375v7.875c0 .24163818-.19587708.4375-.4375.4375H2.3125c-.24162292 0-.4375-.19586182-.4375-.4375v-7.875c0-.24163818.19587708-.4375.4375-.4375z"/>
    <path fill="rgb(0,0,0)" fill-rule="evenodd" d="M5.375 5.8125c0-.24163818.19587708-.4375.4375-.4375h6.125c.24162292 0 .4375.19586182.4375.4375s-.19587708.4375-.4375.4375h-6.125c-.24162292 0-.4375-.19586182-.4375-.4375zM5.375 8c0-.24163818.19587708-.4375.4375-.4375h6.125c.24162292 0 .4375.19586182.4375.4375s-.19587708.4375-.4375.4375h-6.125c-.24162292 0-.4375-.19586182-.4375-.4375zm.4375 1.75c-.24162292 0-.4375.19586182-.4375.4375s.19587708.4375.4375.4375h6.125c.24162292 0 .4375-.19586182.4375-.4375s-.19587708-.4375-.4375-.4375h-6.125z"/>
    <ellipse cx="4.063" cy="5.813" fill="rgb(0,0,0)" rx=".438" ry=".438"/>
    <ellipse cx="4.063" cy="8" fill="rgb(0,0,0)" rx=".438" ry=".438"/>
    <ellipse cx="4.063" cy="10.188" fill="rgb(0,0,0)" rx=".438" ry=".438"/>
  </g>
</svg>
