<svg xmlns="http://www.w3.org/2000/svg" width="24" height="24" viewBox="0 0 24 24">
  <g>
    <path fill="rgb(77,77,77)" fill-rule="evenodd" d="M18.66666667 7.33333365c-1.84 0-3.33333334 1.49333333-3.33333334 3.33333333 0 1.84 1.49333334 3.33333334 3.33333334 3.33333334 1.84 0 3.33333333-1.49333334 3.33333333-3.33333334 0-1.84-1.49333333-3.33333333-3.33333333-3.33333333z"/>
    <path fill="rgb(189,189,189)" fill-rule="evenodd" d="M18.66666667 12.66666698c-1.10666667 0-2-.89333333-2-2 0-1.10666666.89333333-2 2-2 1.10666666 0 2 .89333334 2 2 0 1.10666667-.89333334 2-2 2z"/>
    <path fill="rgb(77,77,77)" fill-rule="evenodd" d="M18.6666565 12.66666698c-.3666687 0-.6666565.3000002-.6666565.66666699v3.99999905c-.00665283 2.57999992-2.08666992 4.65999984-4.6666565 4.66666793-2.58001708-.00666809-4.66000366-2.08666801-4.666687-4.66666793v-3.37333298C11.6666565 13.62666702 14 11.08666706 14 8.00000095V4c0-.90666628-.60665894-1.65999985-1.42666626-1.90666628-.24667358-.82666671-1-1.42666674-1.90667725-1.42666674-1.10665893 0-2 .89333332-2 2 0 1.10666657.89334107 2 2 2 .79333497 0 1.48001099-.4666667 1.80001831-1.1400001.11999512.12000012.1999817.28666663.1999817.47333312v4.00000095C12.66000365 10.57999992 10.57998656 12.65999985 8 12.66666698c-2.57998657-.00666713-4.66000366-2.08666706-4.6666565-4.66666603V4c0-.18666649.07998658-.353333.1999817-.47333312.32000732.6733334 1 1.1400001 1.8000183 1.1400001 1.10665894 0 2-.89333343 2-2 0-1.10666668-.89334106-2-2-2-.90667724 0-1.66000366.60666669-1.90667724 1.42666674C2.60665894 2.34000015 2 3.09333372 2 4v4.00000095c0 3.08666611 2.3333435 5.62666607 5.3333435 5.95999909v3.37333298c0 3.3133335 2.68664551 6 6 6 3.31332398 0 6-2.6866665 6-6v-3.99999905c0-.3666668-.3000183-.66666699-.666687-.66666699zM6 2.66666698c0-.36666679-.30001831-.66666674-.66668701-.66666674-.3666687 0-.6666565.29999995-.6666565.66666674 0 .36666656.2999878.66666651.6666565.66666651C5.69998169 3.3333335 6 3.03333354 6 2.666667zm4.6666565.66666651C10.2999878 3.3333335 10 3.03333354 10 2.666667c0-.3666668.2999878-.66666675.6666565-.66666675.3666687 0 .666687.29999995.666687.66666674 0 .36666656-.3000183.66666651-.666687.66666651z"/>
    <ellipse cx="18.667" cy="10.667" fill="rgb(189,189,189)" rx=".667" ry=".667"/>
  </g>
</svg>
