<svg xmlns="http://www.w3.org/2000/svg" width="16" height="16" viewBox="0 0 16 16">
  <g>
    <path fill="rgb(189,189,189)" fill-rule="evenodd" d="M48.625-32.625h-16.25c-.6875 0-1.25.5625-1.25 1.25v3.125h18.75v-3.125c0-.6875-.5625-1.25-1.25-1.25z"/>
    <path fill="rgb(77,77,77)" fill-rule="evenodd" d="M48.625-33.25H46.75v-1.875c0-1.03749847-.83750153-1.875-1.875-1.875h-8.75c-1.03749847 0-1.875.83750153-1.875 1.875v1.875h-1.875c-1.03750038 0-1.875.83750153-1.875 1.875v12.5c0 1.03750038.83749962 1.875 1.875 1.875h16.25c1.03749847 0 1.875-.83749962 1.875-1.875v-12.5c0-1.03749847-.83750153-1.875-1.875-1.875zM35.5-35.125c0-.34375.28125-.625.625-.625h8.75c.34375 0 .625.28125.625.625v1.875h-10v-1.875zM48.625-18.25c.34375 0 .625-.28125.625-.625v-12.5c0-.34375-.28125-.625-.625-.625h-16.25c-.34375 0-.625.28125-.625.625v12.5c0 .34375.28125.625.625.625h16.25z"/>
    <path fill="rgb(189,189,189)" fill-rule="evenodd" d="M44.25-24.5h-2.5V-27h-2.5v2.5h-2.5v2.5h2.5v2.5h2.5V-22h2.5v-2.5z"/>
  </g>
  <g>
    <path fill="rgb(0,0,0)" fill-rule="evenodd" d="M8.875 1.875H4.5c-.96649831 0-1.75.78350169-1.75 1.75v8.75c0 .96649831.78350169 1.75 1.75 1.75h4.375v-.875H4.5c-.48324916 0-.875-.39175084-.875-.875v-8.75c0-.48324916.39175084-.875.875-.875h4.375v2.1875c0 .72487373.58762627 1.3125 1.3125 1.3125h2.1875V8h.875V6.25L8.875 1.875z"/>
    <path fill="rgb(0,0,0)" fill-rule="evenodd" d="M12.8125 9.75c.24162458 0 .4375.19587542.4375.4375v1.75c0 .24162458-.19587542.4375-.4375.4375h-1.75c-.24162458 0-.4375-.19587542-.4375-.4375s.19587542-.4375.4375-.4375h1.3125v-1.3125c0-.24162458.19587542-.4375.4375-.4375z"/>
    <path fill="rgb(0,0,0)" fill-rule="evenodd" d="M12.375 11.9375c0-.24162458.19587542-.4375.4375-.4375h1.75c.24162458 0 .4375.19587542.4375.4375s-.19587542.4375-.4375.4375H13.25v1.3125c0 .24162458-.19587542.4375-.4375.4375s-.4375-.19587542-.4375-.4375v-1.75z"/>
  </g>
</svg>
