<?xml version="1.0" standalone="no"?>
<!DOCTYPE svg PUBLIC "-//W3C//DTD SVG 20010904//EN"
 "http://www.w3.org/TR/2001/REC-SVG-20010904/DTD/svg10.dtd">
<svg version="1.0" xmlns="http://www.w3.org/2000/svg"
 width="774.000000pt" height="900.000000pt" viewBox="0 0 774.000000 900.000000"
 preserveAspectRatio="xMidYMid meet">

<g transform="translate(0.000000,900.000000) scale(0.100000,-0.100000)"
fill="#000000" stroke="none">
<path d="M1145 8296 c-209 -51 -373 -215 -420 -420 -13 -57 -15 -472 -13
-3433 l3 -3368 27 -68 c74 -183 229 -319 406 -356 38 -8 826 -11 2729 -11
2952 0 2724 -5 2857 62 81 41 194 154 235 235 66 132 61 -160 61 3536 0 3033
-2 3365 -16 3421 -44 173 -172 312 -351 384 l-68 27 -2700 2 c-2103 1 -2711
-1 -2750 -11z m5431 -140 c120 -32 225 -119 281 -234 l28 -57 3 -2882 2 -2883
-3020 0 -3020 0 0 2853 c0 3098 -3 2903 55 3003 57 97 136 161 243 195 55 17
165 18 2717 18 2223 1 2668 -1 2711 -13z m-1636 -6563 c4 -4 25 -60 45 -123
21 -63 41 -108 43 -100 3 8 20 62 37 120 l31 105 48 3 c37 2 47 0 44 -10 -3
-7 -31 -93 -64 -190 l-59 -177 -40 -1 -41 0 -38 115 c-22 64 -43 112 -46 108
-4 -4 -15 -33 -25 -63 -10 -30 -26 -79 -37 -107 -19 -51 -21 -53 -58 -53 l-38
0 -48 143 c-26 78 -55 163 -65 190 l-19 47 49 0 c39 0 51 -4 55 -17 3 -10 19
-65 37 -123 l32 -105 39 115 c21 63 40 121 43 128 5 14 61 10 75 -5z m-2115
-13 c38 -23 59 -67 57 -116 -3 -80 -52 -122 -152 -131 l-60 -6 0 -53 0 -54
-45 0 -45 0 0 190 0 190 106 0 c89 0 112 -3 139 -20z m383 0 c36 -22 52 -54
52 -106 0 -43 -14 -72 -49 -101 l-26 -21 43 -61 c23 -33 42 -62 42 -66 0 -3
-22 -5 -49 -5 -49 0 -49 0 -87 60 -35 53 -43 60 -71 60 l-33 0 0 -60 0 -60
-45 0 -45 0 0 190 0 190 118 0 c99 0 122 -3 150 -20z m412 -20 l0 -40 -100 0
-100 0 0 -35 0 -35 91 0 90 0 -3 -37 -3 -38 -87 -3 -88 -3 0 -34 0 -35 98 0
c54 0 101 -2 103 -5 3 -2 3 -20 1 -40 l-4 -35 -144 0 -144 0 0 190 0 190 145
0 145 0 0 -40z m164 -27 c14 -38 35 -94 46 -125 12 -32 23 -58 24 -58 2 0 11
21 21 48 10 26 31 82 47 125 l29 77 45 0 c33 0 45 -4 42 -13 -2 -8 -34 -93
-73 -190 l-70 -177 -41 0 -40 0 -76 190 -76 190 48 0 48 0 26 -67z m406 -123
l0 -190 -45 0 -45 0 0 190 0 190 45 0 45 0 0 -190z m380 150 l0 -40 -100 0
-100 0 0 -35 0 -35 91 0 90 0 -3 -37 -3 -38 -87 -3 -88 -3 0 -34 0 -35 100 0
100 0 0 -40 0 -40 -145 0 -145 0 0 190 0 190 145 0 145 0 0 -40z"/>
<path d="M3075 7484 c-607 -94 -1085 -556 -1216 -1174 -29 -138 -32 -406 -5
-548 53 -289 190 -554 394 -764 286 -294 650 -448 1062 -450 139 -1 194 5 322
33 71 15 212 61 289 93 12 5 27 -7 54 -43 21 -28 42 -48 47 -45 5 3 7 2 6 -3
-4 -14 23 -54 33 -48 5 4 8 2 7 -3 -2 -6 13 -32 33 -59 l37 -50 -13 -51 c-8
-28 -12 -59 -10 -69 2 -10 6 -30 9 -45 6 -26 78 -122 363 -481 75 -95 199
-251 275 -347 77 -96 151 -188 166 -204 36 -39 97 -66 154 -66 53 0 24 -21
385 278 216 179 221 184 227 227 15 94 33 66 -399 610 -83 105 -168 213 -190
242 -22 29 -46 50 -53 48 -7 -3 -10 0 -7 5 4 6 -20 45 -52 87 -131 172 -160
193 -267 196 l-53 2 -97 122 c-53 66 -96 124 -96 128 0 4 27 47 60 97 109 163
191 364 227 558 24 133 24 413 0 530 -70 333 -209 587 -444 810 -217 207 -479
335 -785 385 -115 18 -341 18 -463 -1z m475 -503 c530 -140 847 -665 719
-1190 -88 -358 -356 -627 -724 -727 -56 -15 -103 -19 -240 -18 -155 0 -178 3
-258 27 -181 56 -312 132 -433 253 -321 321 -382 810 -150 1205 53 90 184 233
270 294 133 94 255 143 446 179 60 11 297 -3 370 -23z"/>
<path d="M3145 6425 c-204 -36 -406 -136 -603 -298 -110 -91 -109 -120 14
-217 279 -222 524 -312 808 -297 155 8 283 43 431 117 124 62 267 162 329 231
50 55 48 81 -14 141 -148 142 -361 259 -563 309 -109 26 -296 33 -402 14z
m-158 -245 c-29 -58 -32 -73 -32 -155 0 -82 3 -97 32 -155 17 -36 30 -66 28
-68 -15 -15 -326 167 -365 212 -8 11 4 25 57 63 83 61 176 116 252 147 31 14
57 23 58 22 1 -1 -13 -30 -30 -66z m710 30 c90 -42 235 -134 266 -168 17 -19
17 -21 -29 -60 -60 -51 -181 -123 -263 -156 -69 -28 -84 -27 -57 3 35 38 58
131 54 211 -4 70 -14 101 -66 203 -7 13 9 8 95 -33z"/>
<path d="M5534 3226 c-142 -119 -260 -219 -262 -224 -1 -5 18 -32 43 -60 65
-72 136 -105 239 -110 109 -5 176 19 252 93 79 77 99 127 99 245 0 89 -2 99
-33 155 -18 33 -43 73 -56 88 l-22 28 -260 -215z"/>
<path d="M2670 1465 l0 -55 36 0 c69 0 108 42 79 86 -13 20 -24 24 -65 24
l-50 0 0 -55z"/>
<path d="M3030 1470 l0 -50 51 0 c65 0 89 13 89 48 0 41 -17 52 -82 52 l-58 0
0 -50z"/>
</g>
</svg>
