<svg xmlns="http://www.w3.org/2000/svg" width="24" height="24" viewBox="0 0 24 24">
  <g>
    <path fill="rgb(189,189,189)" fill-rule="evenodd" d="M48.625-32.625h-16.25c-.6875 0-1.25.5625-1.25 1.25v3.125h18.75v-3.125c0-.6875-.5625-1.25-1.25-1.25z"/>
    <path fill="rgb(77,77,77)" fill-rule="evenodd" d="M48.625-33.25H46.75v-1.875c0-1.03749847-.83750153-1.875-1.875-1.875h-8.75c-1.03749847 0-1.875.83750153-1.875 1.875v1.875h-1.875c-1.03750038 0-1.875.83750153-1.875 1.875v12.5c0 1.03750038.83749962 1.875 1.875 1.875h16.25c1.03749847 0 1.875-.83749962 1.875-1.875v-12.5c0-1.03749847-.83750153-1.875-1.875-1.875zM35.5-35.125c0-.34375.28125-.625.625-.625h8.75c.34375 0 .625.28125.625.625v1.875h-10v-1.875zM48.625-18.25c.34375 0 .625-.28125.625-.625v-12.5c0-.34375-.28125-.625-.625-.625h-16.25c-.34375 0-.625.28125-.625.625v12.5c0 .34375.28125.625.625.625h16.25z"/>
    <path fill="rgb(189,189,189)" fill-rule="evenodd" d="M44.25-24.5h-2.5V-27h-2.5v2.5h-2.5v2.5h2.5v2.5h2.5V-22h2.5v-2.5z"/>
  </g>
  <g>
    <path fill="rgb(0,133,207)" fill-rule="evenodd" d="M4.44330173 9.94501793h2.06185504c.29553256 0 .55670087-.18556695.65292077-.4673538l.72164926-2.1649478 2.0962193 6.28865787c.0962199.28178686.3573882.46735381.65292076.46735381.29553255 0 .55670086-.18556695.65292076-.4673538l1.21649447-3.65635628h1.56700983c.37800676 0 .68728502-.30927825.68728502-.68728501s-.30927826-.68728502-.68728502-.68728502h-2.06185504c-.29553255 0-.55670086.18556696-.65292076.46735381l-.72164926 2.1649478-2.0962193-6.28865788c-.0962199-.28178685-.3573882-.4673538-.65292076-.4673538-.29553255 0-.55670086.18556695-.65292076.4673538L6.01031156 8.5704479H4.44330173c-.37800675 0-.68728501.30927826-.68728501.68728502s.30927826.68728501.68728501.68728501z"/>
    <path fill="rgb(77,77,77)" fill-rule="evenodd" d="M14.60137424 3.91065551l-.48797236.48797236c1.34020577 1.34707863 2.01374509 3.09965541 2.01374509 4.85910505 0 1.75944963-.66666647 3.51889927-2.0137451 4.85910504-1.34707862 1.34020578-3.0996554 2.0137451-4.85910504 2.0137451-1.75944964 0-3.51889927-.66666647-4.85910505-2.0137451-1.34020577-1.34707862-2.01374509-3.0996554-2.01374509-4.85910504 0-1.75944964.66666647-3.51889927 2.0137451-4.85910505C5.7422704 3.0584221 7.49484718 2.38488278 9.25429682 2.38488278c1.75944963 0 3.51889927.66666646 4.85910505 2.0137451l.48797236-.48797237.48797236-.48797236c-1.60824694-1.60824693-3.72508478-2.41924325-5.83504977-2.4123704-2.109965 0-4.21992998.80412347-5.83504977 2.4123704-1.60824693 1.60824693-2.41924325 3.72508478-2.4123704 5.83504977 0 2.10996499.80412347 4.21992998 2.4123704 5.83504976 1.60824693 1.60824694 3.72508478 2.41924325 5.83504977 2.4123704 2.109965 0 4.21992998-.80412346 5.83504977-2.4123704 1.60824693-1.60824693 2.41924324-3.72508477 2.4123704-5.83504976 0-2.109965-.80412347-4.21992999-2.4123704-5.83504977l-.48797236.48797236z"/>
    <path fill="rgb(0,133,207)" fill-rule="evenodd" d="M21.90721393 18.99656156l-3.15463821-3.15463821c-.53608231-.53608231-1.40893428-.53608231-1.94501659 0l-.96907187.96907187c-.53608231.5360823-.53608231 1.40893428 0 1.94501659l3.15463821 3.15463821c.53608231.53608231 1.40893428.53608231 1.9450166 0l.96907186-.96907187c.54295516-.53608231.54295516-1.40893428 0-1.94501659z"/>
    <path fill="rgb(77,77,77)" fill-rule="evenodd" d="M17.78350449 14.74913979c.52233505 0 1.05841827.20618534 1.45704269.60481071l3.1546383 3.1546383c.4054985.39862632.6048107.93470763.6048107 1.4570446 0 .52233695-.20618438 1.05841827-.6048107 1.45704269l-.96907235.96907234c-.39862442.4054985-.93470574.60481071-1.4570427.60481071s-1.05841827-.20618438-1.4570446-.60481071l-3.15463829-3.1546383c-.4054985-.39862441-.60481071-.93470763-.60481071-1.45704269 0-.52233696.20618534-1.05842018.60481071-1.4570446l.96907234-.96907234c.39862442-.4054985.93470765-.60481071 1.4570446-.60481071zm3.83504867 5.22336578c0-.17869377-.06185531-.35051537-.1993122-.48797226l-3.1546383-3.15463829c-.1374569-.13058281-.30927849-.19931221-.48797226-.19931221-.17869377 0-.35051536.06185532-.48797226.19931221l-.96907234.96907234c-.1305828.1374569-.19931221.30927849-.19931221.48797226 0 .17869377.06185532.35051537.19931221.48797226l3.1546383 3.1546383c.13745688.1305847.30927848.1993122.48797225.1993122.17869568 0 .35051537-.06185532.48797226-.1993122l.96907234-.96907235c.13058472-.1374569.19931221-.30927849.19931221-.48797226z"/>
    <path fill="rgb(77,77,77)" fill-rule="evenodd" d="M16.81443198 15.8487962l-1.57388268-1.57388268c-.26804116-.26804116-.70103072-.26804116-.96907187 0-.26804116.26804115-.26804116.70103071 0 .96907187l1.57388268 1.57388268c.26804116.26804115.70103071.26804115.96907187 0 .26804116-.26804116.26804116-.70103072 0-.96907187"/>
  </g>
</svg>
