<svg xmlns="http://www.w3.org/2000/svg" width="16" height="16" viewBox="0 0 16 16">
  <g>
    <path fill="rgb(189,189,189)" fill-rule="evenodd" d="M48.625-32.625h-16.25c-.6875 0-1.25.5625-1.25 1.25v3.125h18.75v-3.125c0-.6875-.5625-1.25-1.25-1.25z"/>
    <path fill="rgb(77,77,77)" fill-rule="evenodd" d="M48.625-33.25H46.75v-1.875c0-1.03749847-.83750153-1.875-1.875-1.875h-8.75c-1.03749847 0-1.875.83750153-1.875 1.875v1.875h-1.875c-1.03750038 0-1.875.83750153-1.875 1.875v12.5c0 1.03750038.83749962 1.875 1.875 1.875h16.25c1.03749847 0 1.875-.83749962 1.875-1.875v-12.5c0-1.03749847-.83750153-1.875-1.875-1.875zM35.5-35.125c0-.34375.28125-.625.625-.625h8.75c.34375 0 .625.28125.625.625v1.875h-10v-1.875zM48.625-18.25c.34375 0 .625-.28125.625-.625v-12.5c0-.34375-.28125-.625-.625-.625h-16.25c-.34375 0-.625.28125-.625.625v12.5c0 .34375.28125.625.625.625h16.25z"/>
    <path fill="rgb(189,189,189)" fill-rule="evenodd" d="M44.25-24.5h-2.5V-27h-2.5v2.5h-2.5v2.5h2.5v2.5h2.5V-22h2.5v-2.5z"/>
  </g>
  <path fill="rgb(0,0,0)" fill-rule="evenodd" d="M3.29846764 2.1499939h9.18653202c.6342821 0 1.14846897.51419067 1.14846897 1.14846801v9.18652344c0 .63427735-.51418686 1.14846802-1.14846897 1.14846802H3.29846764c-.63428116 0-1.14846802-.51419067-1.14846802-1.14846802V3.29846191c0-.63427734.51418686-1.14846801 1.14846802-1.14846801zM3.1343441 3.2984619c0-.0906372.0734806-.16412353.16412544-.16412353h9.18653107c.09064388 0 .16412449.07348633.16412449.16412353v9.18652344c0 .09066773-.0734806.16412354-.16412449.16412354H3.29846954c-.09059333 0-.16412544-.07351685-.16412544-.16412354V3.29846191zm5.24956226 4.10110474h1.9455309c.27170753 0 .4919691.22027588.4919691.49197388s-.22026157.49197387-.4919691.49197387h-1.9455309v1.94552613c0 .271698-.22026157.49197387-.4919691.49197387-.27170659 0-.49196816-.22027587-.49196816-.49197387V8.3835144H5.45443726c-.27170563 0-.49196816-.22027587-.49196816-.49197387s.22026253-.49197388.49196816-.49197388H7.3999691V5.45404053c0-.271698.22026157-.49197388.49196816-.49197388.27170753 0 .4919691.22027588.4919691.49197388v1.94552612z"/>
</svg>
